<?xml version="1.0" standalone="no"?>
<!DOCTYPE svg PUBLIC "-//W3C//DTD SVG 20010904//EN"
 "http://www.w3.org/TR/2001/REC-SVG-20010904/DTD/svg10.dtd">
<svg version="1.0" xmlns="http://www.w3.org/2000/svg"
 width="300.000000pt" height="300.000000pt" viewBox="0 0 300.000000 300.000000"
 preserveAspectRatio="xMidYMid meet">
<metadata>
Created by potrace 1.10, written by Peter Selinger 2001-2011
</metadata>
<g transform="translate(0.000000,300.000000) scale(0.050000,-0.050000)"
fill="#1d4ed8" stroke="none">
<path d="M4357 5142 c-504 -110 -869 -475 -1036 -1037 -68 -230 -42 -249 268
-203 296 44 414 -82 341 -367 -74 -291 -559 -1027 -653 -991 -107 42 -210 427
-417 1553 -83 457 -117 577 -208 731 -148 253 -455 358 -736 252 -141 -53
-1416 -1026 -1416 -1080 0 -57 283 -409 334 -416 28 -4 82 25 150 80 198 162
306 173 373 41 67 -133 288 -836 552 -1755 260 -906 569 -1226 1074 -1111 808
184 2274 1966 2489 3024 185 915 -288 1459 -1115 1279z m590 -203 c436 -163
483 -928 101 -1671 -340 -661 -1091 -1594 -1583 -1967 -609 -461 -1080 -325
-1275 369 -234 832 -507 1729 -605 1985 -132 347 -345 426 -628 231 l-103 -71
-38 48 c-88 111 -115 81 500 551 654 501 673 512 824 512 311 0 400 -157 550
-976 255 -1380 375 -1673 658 -1602 156 39 632 717 751 1068 151 448 -125 789
-544 671 -167 -47 223 548 465 710 255 170 679 235 927 142z"/>
<path d="M2984 2482 c65 -124 153 -187 250 -177 l76 8 -75 4 c-74 3 -199 102
-271 213 -14 22 -5 1 20 -48z"/>
</g>
</svg>
